<mxfile host="app.diagrams.net" agent="Mozilla/5.0 (Windows NT 10.0; Win64; x64) AppleWebKit/537.36 (KHTML, like Gecko) Chrome/127.0.0.0 Safari/537.36" version="24.7.6">
  <diagram name="Page-1" id="DKGAmTH7IYVnLwG2p-rW">
    <mxGraphModel dx="1400" dy="753" grid="1" gridSize="10" guides="1" tooltips="1" connect="1" arrows="1" fold="1" page="1" pageScale="1" pageWidth="2339" pageHeight="3300" math="0" shadow="0">
      <root>
        <mxCell id="0" />
        <mxCell id="1" parent="0" />
        <mxCell id="i1B-f_vfJnyZmSTUSLFz-1" value="Directeur" style="shape=umlActor;verticalLabelPosition=bottom;verticalAlign=top;html=1;outlineConnect=0;" parent="1" vertex="1">
          <mxGeometry x="40" y="30" width="30" height="60" as="geometry" />
        </mxCell>
        <mxCell id="i1B-f_vfJnyZmSTUSLFz-9" value="course" style="shape=umlLifeline;perimeter=lifelinePerimeter;whiteSpace=wrap;html=1;container=1;dropTarget=0;collapsible=0;recursiveResize=0;outlineConnect=0;portConstraint=eastwest;newEdgeStyle={&quot;edgeStyle&quot;:&quot;elbowEdgeStyle&quot;,&quot;elbow&quot;:&quot;vertical&quot;,&quot;curved&quot;:0,&quot;rounded&quot;:0};" parent="1" vertex="1">
          <mxGeometry x="540" y="40" width="100" height="790" as="geometry" />
        </mxCell>
        <mxCell id="i1B-f_vfJnyZmSTUSLFz-12" value="note" style="shape=umlLifeline;perimeter=lifelinePerimeter;whiteSpace=wrap;html=1;container=1;dropTarget=0;collapsible=0;recursiveResize=0;outlineConnect=0;portConstraint=eastwest;newEdgeStyle={&quot;edgeStyle&quot;:&quot;elbowEdgeStyle&quot;,&quot;elbow&quot;:&quot;vertical&quot;,&quot;curved&quot;:0,&quot;rounded&quot;:0};" parent="1" vertex="1">
          <mxGeometry x="700" y="40" width="100" height="790" as="geometry" />
        </mxCell>
        <mxCell id="i1B-f_vfJnyZmSTUSLFz-13" value="" style="html=1;points=[];perimeter=orthogonalPerimeter;fillColor=strokeColor;" parent="1" vertex="1">
          <mxGeometry x="50" y="130" width="5" height="220" as="geometry" />
        </mxCell>
        <mxCell id="i1B-f_vfJnyZmSTUSLFz-15" value="return" style="endArrow=open;startArrow=none;endFill=0;startFill=0;endSize=8;html=1;verticalAlign=bottom;dashed=1;labelBackgroundColor=none;rounded=0;" parent="1" source="i1B-f_vfJnyZmSTUSLFz-23" edge="1">
          <mxGeometry x="-0.0535" width="160" relative="1" as="geometry">
            <mxPoint x="90" y="230" as="sourcePoint" />
            <mxPoint x="60" y="160" as="targetPoint" />
            <mxPoint as="offset" />
          </mxGeometry>
        </mxCell>
        <mxCell id="i1B-f_vfJnyZmSTUSLFz-17" value="" style="endArrow=classic;html=1;rounded=0;" parent="1" target="OpkuWLpWqErTyJCGgItU-1" edge="1">
          <mxGeometry width="50" height="50" relative="1" as="geometry">
            <mxPoint x="60" y="200" as="sourcePoint" />
            <mxPoint x="240" y="210" as="targetPoint" />
            <Array as="points">
              <mxPoint x="200" y="200" />
            </Array>
          </mxGeometry>
        </mxCell>
        <mxCell id="i1B-f_vfJnyZmSTUSLFz-18" value="add course" style="text;html=1;align=center;verticalAlign=middle;resizable=0;points=[];autosize=1;strokeColor=none;fillColor=none;" parent="1" vertex="1">
          <mxGeometry x="150" y="178" width="80" height="30" as="geometry" />
        </mxCell>
        <mxCell id="i1B-f_vfJnyZmSTUSLFz-19" value="" style="html=1;points=[];perimeter=orthogonalPerimeter;fillColor=strokeColor;align=left;verticalAlign=top;spacingLeft=10;" parent="1" vertex="1">
          <mxGeometry x="587.5" y="200" width="5" height="20" as="geometry" />
        </mxCell>
        <mxCell id="i1B-f_vfJnyZmSTUSLFz-20" value="" style="endArrow=classic;html=1;rounded=0;" parent="1" target="OpkuWLpWqErTyJCGgItU-1" edge="1">
          <mxGeometry width="50" height="50" relative="1" as="geometry">
            <mxPoint x="60" y="140" as="sourcePoint" />
            <mxPoint x="180" y="140" as="targetPoint" />
            <Array as="points" />
          </mxGeometry>
        </mxCell>
        <mxCell id="i1B-f_vfJnyZmSTUSLFz-22" value="afficher le course&amp;nbsp;" style="endArrow=open;startArrow=none;endFill=0;startFill=0;endSize=8;html=1;verticalAlign=bottom;dashed=1;labelBackgroundColor=none;rounded=0;" parent="1" edge="1">
          <mxGeometry width="160" relative="1" as="geometry">
            <mxPoint x="592.5" y="250" as="sourcePoint" />
            <mxPoint x="60" y="250" as="targetPoint" />
            <Array as="points">
              <mxPoint x="323" y="250" />
            </Array>
          </mxGeometry>
        </mxCell>
        <mxCell id="i1B-f_vfJnyZmSTUSLFz-23" value="" style="html=1;points=[];perimeter=orthogonalPerimeter;fillColor=strokeColor;" parent="1" vertex="1">
          <mxGeometry x="410" y="140" width="5" height="20" as="geometry" />
        </mxCell>
        <mxCell id="i1B-f_vfJnyZmSTUSLFz-27" value="" style="endArrow=classic;html=1;rounded=0;exitX=1.44;exitY=0.803;exitDx=0;exitDy=0;exitPerimeter=0;entryX=0.039;entryY=0.927;entryDx=0;entryDy=0;entryPerimeter=0;" parent="1" source="i1B-f_vfJnyZmSTUSLFz-13" edge="1">
          <mxGeometry width="50" height="50" relative="1" as="geometry">
            <mxPoint x="64" y="165" as="sourcePoint" />
            <mxPoint x="420.85000000000014" y="305.80999999999995" as="targetPoint" />
          </mxGeometry>
        </mxCell>
        <mxCell id="i1B-f_vfJnyZmSTUSLFz-30" value="" style="html=1;points=[];perimeter=orthogonalPerimeter;fillColor=strokeColor;" parent="1" vertex="1">
          <mxGeometry x="587.5" y="320" width="5" height="20" as="geometry" />
        </mxCell>
        <mxCell id="i1B-f_vfJnyZmSTUSLFz-31" value="avoir le cours avex la nome de student" style="endArrow=open;startArrow=none;endFill=0;startFill=0;endSize=8;html=1;verticalAlign=bottom;dashed=1;labelBackgroundColor=none;rounded=0;exitX=0.1;exitY=0.919;exitDx=0;exitDy=0;exitPerimeter=0;" parent="1" source="i1B-f_vfJnyZmSTUSLFz-30" edge="1">
          <mxGeometry x="0.3823" y="-8" width="160" relative="1" as="geometry">
            <mxPoint x="410" y="340" as="sourcePoint" />
            <mxPoint x="70" y="338" as="targetPoint" />
            <mxPoint x="1" as="offset" />
          </mxGeometry>
        </mxCell>
        <mxCell id="Xz6Ck8s1d1qLKp3yGDno-1" value="" style="endArrow=classic;html=1;rounded=0;" parent="1" edge="1">
          <mxGeometry width="50" height="50" relative="1" as="geometry">
            <mxPoint x="140" y="400" as="sourcePoint" />
            <mxPoint x="410" y="400" as="targetPoint" />
          </mxGeometry>
        </mxCell>
        <mxCell id="OpkuWLpWqErTyJCGgItU-14" value="consulter les aganda" style="edgeLabel;html=1;align=center;verticalAlign=middle;resizable=0;points=[];" parent="Xz6Ck8s1d1qLKp3yGDno-1" vertex="1" connectable="0">
          <mxGeometry x="-0.0044" y="9" relative="1" as="geometry">
            <mxPoint as="offset" />
          </mxGeometry>
        </mxCell>
        <mxCell id="Xz6Ck8s1d1qLKp3yGDno-2" value="" style="html=1;points=[];perimeter=orthogonalPerimeter;fillColor=strokeColor;" parent="1" vertex="1">
          <mxGeometry x="410" y="400" width="5" height="20" as="geometry" />
        </mxCell>
        <mxCell id="Xz6Ck8s1d1qLKp3yGDno-3" value="return" style="endArrow=open;startArrow=none;endFill=0;startFill=0;endSize=8;html=1;verticalAlign=bottom;dashed=1;labelBackgroundColor=none;rounded=0;" parent="1" source="OpkuWLpWqErTyJCGgItU-1" edge="1">
          <mxGeometry width="160" relative="1" as="geometry">
            <mxPoint x="488" y="338" as="sourcePoint" />
            <mxPoint x="150" y="420" as="targetPoint" />
            <Array as="points">
              <mxPoint x="140" y="420" />
            </Array>
          </mxGeometry>
        </mxCell>
        <mxCell id="OpkuWLpWqErTyJCGgItU-1" value="system" style="shape=umlLifeline;perimeter=lifelinePerimeter;whiteSpace=wrap;html=1;container=1;dropTarget=0;collapsible=0;recursiveResize=0;outlineConnect=0;portConstraint=eastwest;newEdgeStyle={&quot;edgeStyle&quot;:&quot;elbowEdgeStyle&quot;,&quot;elbow&quot;:&quot;vertical&quot;,&quot;curved&quot;:0,&quot;rounded&quot;:0};" parent="1" vertex="1">
          <mxGeometry x="362.5" y="40" width="100" height="790" as="geometry" />
        </mxCell>
        <mxCell id="OpkuWLpWqErTyJCGgItU-5" value="consulter les course" style="text;html=1;align=center;verticalAlign=middle;resizable=0;points=[];autosize=1;strokeColor=none;fillColor=none;" parent="1" vertex="1">
          <mxGeometry x="275" y="110" width="130" height="30" as="geometry" />
        </mxCell>
        <mxCell id="OpkuWLpWqErTyJCGgItU-7" value="Data&amp;nbsp;" style="shape=umlLifeline;perimeter=lifelinePerimeter;whiteSpace=wrap;html=1;container=1;dropTarget=0;collapsible=0;recursiveResize=0;outlineConnect=0;portConstraint=eastwest;newEdgeStyle={&quot;edgeStyle&quot;:&quot;elbowEdgeStyle&quot;,&quot;elbow&quot;:&quot;vertical&quot;,&quot;curved&quot;:0,&quot;rounded&quot;:0};" parent="1" vertex="1">
          <mxGeometry x="850" y="40" width="100" height="800" as="geometry" />
        </mxCell>
        <mxCell id="OpkuWLpWqErTyJCGgItU-8" value="Student" style="shape=umlActor;verticalLabelPosition=bottom;verticalAlign=top;html=1;outlineConnect=0;" parent="1" vertex="1">
          <mxGeometry x="220" y="30" width="30" height="60" as="geometry" />
        </mxCell>
        <mxCell id="OpkuWLpWqErTyJCGgItU-10" value="Teacher" style="shape=umlActor;verticalLabelPosition=bottom;verticalAlign=top;html=1;outlineConnect=0;" parent="1" vertex="1">
          <mxGeometry x="130" y="30" width="30" height="60" as="geometry" />
        </mxCell>
        <mxCell id="OpkuWLpWqErTyJCGgItU-11" value="" style="endArrow=none;dashed=1;html=1;rounded=0;" parent="1" source="OpkuWLpWqErTyJCGgItU-38" edge="1">
          <mxGeometry width="50" height="50" relative="1" as="geometry">
            <mxPoint x="143" y="650" as="sourcePoint" />
            <mxPoint x="140" y="120" as="targetPoint" />
          </mxGeometry>
        </mxCell>
        <mxCell id="OpkuWLpWqErTyJCGgItU-13" value="" style="endArrow=none;dashed=1;html=1;rounded=0;" parent="1" target="OpkuWLpWqErTyJCGgItU-12" edge="1">
          <mxGeometry width="50" height="50" relative="1" as="geometry">
            <mxPoint x="140" y="440" as="sourcePoint" />
            <mxPoint x="140" y="120" as="targetPoint" />
          </mxGeometry>
        </mxCell>
        <mxCell id="OpkuWLpWqErTyJCGgItU-12" value="" style="html=1;points=[];perimeter=orthogonalPerimeter;fillColor=strokeColor;" parent="1" vertex="1">
          <mxGeometry x="140" y="400" width="5" height="100" as="geometry" />
        </mxCell>
        <mxCell id="OpkuWLpWqErTyJCGgItU-20" value="" style="html=1;points=[];perimeter=orthogonalPerimeter;fillColor=strokeColor;" parent="1" vertex="1">
          <mxGeometry x="410" y="420" width="5" height="160" as="geometry" />
        </mxCell>
        <mxCell id="OpkuWLpWqErTyJCGgItU-21" value="" style="endArrow=classic;html=1;rounded=0;" parent="1" source="OpkuWLpWqErTyJCGgItU-1" target="i1B-f_vfJnyZmSTUSLFz-9" edge="1">
          <mxGeometry width="50" height="50" relative="1" as="geometry">
            <mxPoint x="550" y="570" as="sourcePoint" />
            <mxPoint x="600" y="520" as="targetPoint" />
            <Array as="points">
              <mxPoint x="500" y="440" />
            </Array>
          </mxGeometry>
        </mxCell>
        <mxCell id="OpkuWLpWqErTyJCGgItU-22" value="rechercher le cours" style="edgeLabel;html=1;align=center;verticalAlign=middle;resizable=0;points=[];" parent="OpkuWLpWqErTyJCGgItU-21" vertex="1" connectable="0">
          <mxGeometry x="0.0862" y="-4" relative="1" as="geometry">
            <mxPoint x="-18" y="-14" as="offset" />
          </mxGeometry>
        </mxCell>
        <mxCell id="OpkuWLpWqErTyJCGgItU-24" value="return" style="endArrow=open;startArrow=none;endFill=0;startFill=0;endSize=8;html=1;verticalAlign=bottom;dashed=1;labelBackgroundColor=none;rounded=0;" parent="1" source="i1B-f_vfJnyZmSTUSLFz-9" target="OpkuWLpWqErTyJCGgItU-1" edge="1">
          <mxGeometry width="160" relative="1" as="geometry">
            <mxPoint x="500" y="550" as="sourcePoint" />
            <mxPoint x="660" y="550" as="targetPoint" />
            <Array as="points">
              <mxPoint x="500" y="460" />
            </Array>
          </mxGeometry>
        </mxCell>
        <mxCell id="OpkuWLpWqErTyJCGgItU-25" value="afficher le cours" style="endArrow=open;startArrow=none;endFill=0;startFill=0;endSize=8;html=1;verticalAlign=bottom;dashed=1;labelBackgroundColor=none;rounded=0;" parent="1" source="OpkuWLpWqErTyJCGgItU-1" edge="1">
          <mxGeometry width="160" relative="1" as="geometry">
            <mxPoint x="500" y="550" as="sourcePoint" />
            <mxPoint x="150" y="480" as="targetPoint" />
            <Array as="points">
              <mxPoint x="280" y="470" />
              <mxPoint x="150" y="470" />
            </Array>
          </mxGeometry>
        </mxCell>
        <mxCell id="OpkuWLpWqErTyJCGgItU-28" value="" style="html=1;verticalAlign=bottom;labelBackgroundColor=none;endArrow=block;endFill=1;rounded=0;" parent="1" edge="1">
          <mxGeometry width="160" relative="1" as="geometry">
            <mxPoint x="140" y="500" as="sourcePoint" />
            <mxPoint x="418" y="500" as="targetPoint" />
            <Array as="points">
              <mxPoint x="210" y="500" />
              <mxPoint x="266" y="500" />
              <mxPoint x="376" y="500" />
            </Array>
          </mxGeometry>
        </mxCell>
        <mxCell id="OpkuWLpWqErTyJCGgItU-29" value="consulter a student&amp;nbsp;" style="text;html=1;align=center;verticalAlign=middle;resizable=0;points=[];autosize=1;strokeColor=none;fillColor=none;" parent="1" vertex="1">
          <mxGeometry x="225" y="478" width="130" height="30" as="geometry" />
        </mxCell>
        <mxCell id="OpkuWLpWqErTyJCGgItU-30" value="return indormations" style="endArrow=open;startArrow=none;endFill=0;startFill=0;endSize=8;html=1;verticalAlign=bottom;dashed=1;labelBackgroundColor=none;rounded=0;" parent="1" edge="1">
          <mxGeometry x="-0.044" y="30" width="160" relative="1" as="geometry">
            <mxPoint x="407" y="520" as="sourcePoint" />
            <mxPoint x="225" y="520" as="targetPoint" />
            <Array as="points">
              <mxPoint x="315" y="520" />
            </Array>
            <mxPoint as="offset" />
          </mxGeometry>
        </mxCell>
        <mxCell id="OpkuWLpWqErTyJCGgItU-31" value="" style="endArrow=none;dashed=1;html=1;rounded=0;" parent="1" source="OpkuWLpWqErTyJCGgItU-35" edge="1">
          <mxGeometry width="50" height="50" relative="1" as="geometry">
            <mxPoint x="230" y="665.5999755859375" as="sourcePoint" />
            <mxPoint x="230" y="120" as="targetPoint" />
          </mxGeometry>
        </mxCell>
        <mxCell id="OpkuWLpWqErTyJCGgItU-32" value="" style="endArrow=classic;html=1;rounded=0;" parent="1" target="OpkuWLpWqErTyJCGgItU-1" edge="1">
          <mxGeometry width="50" height="50" relative="1" as="geometry">
            <mxPoint x="230" y="550" as="sourcePoint" />
            <mxPoint x="402" y="550" as="targetPoint" />
            <Array as="points">
              <mxPoint x="340" y="550" />
            </Array>
          </mxGeometry>
        </mxCell>
        <mxCell id="OpkuWLpWqErTyJCGgItU-33" value="recherche un éléves" style="edgeLabel;html=1;align=center;verticalAlign=middle;resizable=0;points=[];" parent="OpkuWLpWqErTyJCGgItU-32" vertex="1" connectable="0">
          <mxGeometry x="-0.0066" y="-6" relative="1" as="geometry">
            <mxPoint x="20" y="-36" as="offset" />
          </mxGeometry>
        </mxCell>
        <mxCell id="OpkuWLpWqErTyJCGgItU-36" value="" style="endArrow=none;dashed=1;html=1;rounded=0;" parent="1" target="OpkuWLpWqErTyJCGgItU-35" edge="1">
          <mxGeometry width="50" height="50" relative="1" as="geometry">
            <mxPoint x="230" y="830" as="sourcePoint" />
            <mxPoint x="230" y="120" as="targetPoint" />
            <Array as="points">
              <mxPoint x="233" y="650" />
            </Array>
          </mxGeometry>
        </mxCell>
        <mxCell id="OpkuWLpWqErTyJCGgItU-35" value="" style="html=1;points=[];perimeter=orthogonalPerimeter;fillColor=strokeColor;" parent="1" vertex="1">
          <mxGeometry x="230" y="520" width="5" height="30" as="geometry" />
        </mxCell>
        <mxCell id="OpkuWLpWqErTyJCGgItU-37" value="Affiche le information d&#39;éleve" style="html=1;verticalAlign=bottom;labelBackgroundColor=none;endArrow=open;endFill=0;dashed=1;rounded=0;" parent="1" source="OpkuWLpWqErTyJCGgItU-1" edge="1">
          <mxGeometry width="160" relative="1" as="geometry">
            <mxPoint x="530" y="430" as="sourcePoint" />
            <mxPoint x="140" y="580" as="targetPoint" />
          </mxGeometry>
        </mxCell>
        <mxCell id="OpkuWLpWqErTyJCGgItU-39" value="" style="endArrow=none;dashed=1;html=1;rounded=0;" parent="1" target="OpkuWLpWqErTyJCGgItU-38" edge="1">
          <mxGeometry width="50" height="50" relative="1" as="geometry">
            <mxPoint x="140" y="840" as="sourcePoint" />
            <mxPoint x="140" y="120" as="targetPoint" />
          </mxGeometry>
        </mxCell>
        <mxCell id="OpkuWLpWqErTyJCGgItU-38" value="" style="html=1;points=[];perimeter=orthogonalPerimeter;fillColor=strokeColor;" parent="1" vertex="1">
          <mxGeometry x="140" y="570" width="5" height="20" as="geometry" />
        </mxCell>
        <mxCell id="OpkuWLpWqErTyJCGgItU-40" value="" style="endArrow=none;dashed=1;html=1;rounded=0;" parent="1" source="OpkuWLpWqErTyJCGgItU-56" edge="1">
          <mxGeometry width="50" height="50" relative="1" as="geometry">
            <mxPoint x="50" y="890" as="sourcePoint" />
            <mxPoint x="50" y="120" as="targetPoint" />
          </mxGeometry>
        </mxCell>
        <mxCell id="OpkuWLpWqErTyJCGgItU-41" value="" style="endArrow=classic;html=1;rounded=0;exitX=0.28;exitY=0.873;exitDx=0;exitDy=0;exitPerimeter=0;" parent="1" source="OpkuWLpWqErTyJCGgItU-42" target="OpkuWLpWqErTyJCGgItU-1" edge="1">
          <mxGeometry width="50" height="50" relative="1" as="geometry">
            <mxPoint x="50" y="660" as="sourcePoint" />
            <mxPoint x="230" y="660" as="targetPoint" />
          </mxGeometry>
        </mxCell>
        <mxCell id="OpkuWLpWqErTyJCGgItU-42" value="ajouter /modifier note&amp;nbsp;" style="text;html=1;align=center;verticalAlign=middle;resizable=0;points=[];autosize=1;strokeColor=none;fillColor=none;" parent="1" vertex="1">
          <mxGeometry x="90" y="630" width="140" height="30" as="geometry" />
        </mxCell>
        <mxCell id="OpkuWLpWqErTyJCGgItU-44" value="" style="endArrow=classic;html=1;rounded=0;" parent="1" source="OpkuWLpWqErTyJCGgItU-48" target="i1B-f_vfJnyZmSTUSLFz-12" edge="1">
          <mxGeometry width="50" height="50" relative="1" as="geometry">
            <mxPoint x="420" y="710" as="sourcePoint" />
            <mxPoint x="740" y="710" as="targetPoint" />
          </mxGeometry>
        </mxCell>
        <mxCell id="OpkuWLpWqErTyJCGgItU-45" value="met à jour&amp;nbsp;" style="text;html=1;align=center;verticalAlign=middle;resizable=0;points=[];autosize=1;strokeColor=none;fillColor=none;" parent="1" vertex="1">
          <mxGeometry x="460" y="688" width="80" height="30" as="geometry" />
        </mxCell>
        <mxCell id="OpkuWLpWqErTyJCGgItU-46" value="" style="html=1;points=[];perimeter=orthogonalPerimeter;fillColor=strokeColor;" parent="1" vertex="1">
          <mxGeometry x="410" y="650" width="5" height="20" as="geometry" />
        </mxCell>
        <mxCell id="OpkuWLpWqErTyJCGgItU-49" value="" style="endArrow=classic;html=1;rounded=0;" parent="1" target="OpkuWLpWqErTyJCGgItU-48" edge="1">
          <mxGeometry width="50" height="50" relative="1" as="geometry">
            <mxPoint x="420" y="710" as="sourcePoint" />
            <mxPoint x="750" y="710" as="targetPoint" />
          </mxGeometry>
        </mxCell>
        <mxCell id="OpkuWLpWqErTyJCGgItU-48" value="" style="html=1;points=[];perimeter=orthogonalPerimeter;fillColor=strokeColor;" parent="1" vertex="1">
          <mxGeometry x="747.5" y="708" width="5" height="10" as="geometry" />
        </mxCell>
        <mxCell id="OpkuWLpWqErTyJCGgItU-50" value="" style="endArrow=classic;html=1;rounded=0;" parent="1" target="OpkuWLpWqErTyJCGgItU-1" edge="1">
          <mxGeometry width="50" height="50" relative="1" as="geometry">
            <mxPoint x="50" y="730" as="sourcePoint" />
            <mxPoint x="320" y="570" as="targetPoint" />
            <Array as="points">
              <mxPoint x="370" y="730" />
            </Array>
          </mxGeometry>
        </mxCell>
        <mxCell id="OpkuWLpWqErTyJCGgItU-51" value="consulter un cours&amp;nbsp;" style="text;html=1;align=center;verticalAlign=middle;resizable=0;points=[];autosize=1;strokeColor=none;fillColor=none;" parent="1" vertex="1">
          <mxGeometry x="200" y="698" width="120" height="30" as="geometry" />
        </mxCell>
        <mxCell id="OpkuWLpWqErTyJCGgItU-52" value="" style="endArrow=classic;html=1;rounded=0;" parent="1" target="i1B-f_vfJnyZmSTUSLFz-9" edge="1">
          <mxGeometry width="50" height="50" relative="1" as="geometry">
            <mxPoint x="420" y="760" as="sourcePoint" />
            <mxPoint x="320" y="500" as="targetPoint" />
          </mxGeometry>
        </mxCell>
        <mxCell id="OpkuWLpWqErTyJCGgItU-53" value="Gérer les cours par date&amp;nbsp;" style="text;html=1;align=center;verticalAlign=middle;resizable=0;points=[];autosize=1;strokeColor=none;fillColor=none;" parent="1" vertex="1">
          <mxGeometry x="400" y="738" width="160" height="30" as="geometry" />
        </mxCell>
        <mxCell id="OpkuWLpWqErTyJCGgItU-54" value="" style="endArrow=classic;html=1;rounded=0;" parent="1" target="OpkuWLpWqErTyJCGgItU-7" edge="1">
          <mxGeometry width="50" height="50" relative="1" as="geometry">
            <mxPoint x="50" y="830" as="sourcePoint" />
            <mxPoint x="320" y="740" as="targetPoint" />
          </mxGeometry>
        </mxCell>
        <mxCell id="OpkuWLpWqErTyJCGgItU-55" value="Gérer les information éleves /ensignant&amp;nbsp;" style="text;html=1;align=center;verticalAlign=middle;resizable=0;points=[];autosize=1;strokeColor=none;fillColor=none;" parent="1" vertex="1">
          <mxGeometry x="180" y="808" width="240" height="30" as="geometry" />
        </mxCell>
        <mxCell id="OpkuWLpWqErTyJCGgItU-57" value="" style="endArrow=none;dashed=1;html=1;rounded=0;" parent="1" target="OpkuWLpWqErTyJCGgItU-56" edge="1">
          <mxGeometry width="50" height="50" relative="1" as="geometry">
            <mxPoint x="50" y="890" as="sourcePoint" />
            <mxPoint x="50" y="120" as="targetPoint" />
          </mxGeometry>
        </mxCell>
        <mxCell id="OpkuWLpWqErTyJCGgItU-56" value="" style="html=1;points=[];perimeter=orthogonalPerimeter;fillColor=strokeColor;" parent="1" vertex="1">
          <mxGeometry x="45" y="730" width="10" height="100" as="geometry" />
        </mxCell>
        <mxCell id="CrLBbL69Shos_XjduU1m-1" value="" style="endArrow=classic;html=1;rounded=0;" edge="1" parent="1" source="OpkuWLpWqErTyJCGgItU-1" target="i1B-f_vfJnyZmSTUSLFz-9">
          <mxGeometry width="50" height="50" relative="1" as="geometry">
            <mxPoint x="510" y="360" as="sourcePoint" />
            <mxPoint x="560" y="310" as="targetPoint" />
            <Array as="points">
              <mxPoint x="500" y="220" />
            </Array>
          </mxGeometry>
        </mxCell>
        <mxCell id="CrLBbL69Shos_XjduU1m-2" value="add course to list" style="text;html=1;align=center;verticalAlign=middle;resizable=0;points=[];autosize=1;strokeColor=none;fillColor=none;" vertex="1" parent="1">
          <mxGeometry x="435" y="195" width="110" height="30" as="geometry" />
        </mxCell>
        <mxCell id="CrLBbL69Shos_XjduU1m-3" value="consulter le course ajouté" style="text;html=1;align=center;verticalAlign=middle;resizable=0;points=[];autosize=1;strokeColor=none;fillColor=none;" vertex="1" parent="1">
          <mxGeometry x="190" y="278" width="160" height="30" as="geometry" />
        </mxCell>
        <mxCell id="CrLBbL69Shos_XjduU1m-4" value="" style="endArrow=classic;html=1;rounded=0;" edge="1" parent="1" source="OpkuWLpWqErTyJCGgItU-1" target="i1B-f_vfJnyZmSTUSLFz-9">
          <mxGeometry width="50" height="50" relative="1" as="geometry">
            <mxPoint x="510" y="360" as="sourcePoint" />
            <mxPoint x="560" y="310" as="targetPoint" />
            <Array as="points">
              <mxPoint x="490" y="330" />
            </Array>
          </mxGeometry>
        </mxCell>
        <mxCell id="CrLBbL69Shos_XjduU1m-5" value="assigne le cours to a teacher" style="text;html=1;align=center;verticalAlign=middle;resizable=0;points=[];autosize=1;strokeColor=none;fillColor=none;" vertex="1" parent="1">
          <mxGeometry x="400" y="308" width="180" height="30" as="geometry" />
        </mxCell>
      </root>
    </mxGraphModel>
  </diagram>
</mxfile>
